<svg width="220" height="160" viewBox="0 0 220 160" fill="none" xmlns="http://www.w3.org/2000/svg">
<path d="M98.5103 21.0404C96.818 20.9513 95.9496 18.7469 96.5285 17.166C97.1297 15.585 98.6439 14.5607 100.069 13.6701C102.563 12.1336 105.213 10.6417 108.13 10.3077C108.063 11.2207 107.84 12.1336 107.484 13.002C108.887 12.334 110.445 11.9778 112.004 12C112.316 12 112.628 12.0223 112.895 12.1559C113.874 12.6458 113.652 14.0709 113.273 15.0951C114.52 14.8947 115.812 14.7166 117.059 14.9838C118.306 15.251 119.508 16.0749 119.842 17.2996C120.198 18.5242 119.597 19.838 118.818 20.84C117.215 22.9108 114.676 24.2246 112.049 24.3805C111.002 21.508 109.043 18.7692 106.148 17.7672C103.253 16.7652 99.4677 18.1902 98.7552 21.174" fill="#F34D56"/>
<path d="M99.2229 19.2592C101.116 16.8989 104.233 15.5852 107.239 15.9192C110.245 16.2532 113.028 18.2127 114.342 20.9292C114.654 21.575 114.899 22.2652 114.787 22.9778C114.676 23.6681 114.142 24.3583 113.429 24.4029C113.207 24.4251 112.962 24.3806 112.761 24.2693C112.227 23.9798 112.004 23.3118 111.737 22.7551C110.891 20.9515 109.154 19.6155 107.239 19.0588C105.324 18.5021 103.231 18.658 101.338 19.3037C100.937 19.4373 100.492 19.5709 100.114 19.4151C99.735 19.2592 99.6237 18.5689 100.025 18.4576" fill="#AE1832"/>
<path d="M98.8219 20.5729C98.5992 20.6619 98.3765 20.6842 98.1316 20.6619C97.9089 20.6397 97.6863 20.5506 97.4859 20.417C97.0851 20.1721 96.7733 19.7935 96.5729 19.3927C96.3725 18.9696 96.2612 18.502 96.3503 18.0122C96.4171 17.5446 96.5952 17.0992 96.8401 16.7207C97.33 15.9413 98.0425 15.3179 98.7774 14.7835C99.5122 14.249 100.247 13.7369 101.004 13.2693C102.54 12.3118 104.121 11.4657 105.791 10.7309C106.215 10.5527 106.615 10.3746 107.038 10.1965C107.15 10.1519 107.239 10.1074 107.372 10.0629C107.506 10.0183 107.662 9.97379 107.862 10.0183C107.974 10.0406 108.063 10.0851 108.152 10.1519C108.241 10.2187 108.308 10.3078 108.352 10.3969C108.441 10.575 108.463 10.7309 108.463 10.8867C108.463 11.0426 108.441 11.1762 108.419 11.2875C108.397 11.3989 108.374 11.5325 108.352 11.6438C108.308 11.8887 108.219 12.1114 108.129 12.3341C107.951 12.7794 107.729 13.2025 107.439 13.6033L106.927 13.0466C107.528 12.6458 108.174 12.2673 108.887 11.9778C109.599 11.6883 110.378 11.5102 111.202 11.5993C111.625 11.6438 112.048 11.7997 112.405 12.0001C112.761 12.2005 113.095 12.49 113.362 12.824C113.629 13.158 113.83 13.5588 113.919 14.0041C114.008 14.4495 113.963 14.9616 113.741 15.3847L113.184 14.6499C113.785 14.5385 114.409 14.4495 115.032 14.4272C115.656 14.4272 116.301 14.4717 116.925 14.6721C117.237 14.7612 117.548 14.8725 117.838 15.0284C118.127 15.1843 118.395 15.3624 118.662 15.5628C119.174 15.9859 119.597 16.5203 119.842 17.1215C119.953 17.4332 120.042 17.7672 120.065 18.1012L120.087 18.3462C120.087 18.4352 120.087 18.502 120.065 18.5911C120.065 18.6802 120.065 18.747 120.042 18.836L119.998 19.081L119.976 19.1923L119.931 19.3036L119.864 19.5263C119.797 19.6822 119.731 19.8158 119.664 19.9717C119.508 20.2389 119.33 20.5061 119.129 20.751C118.729 21.2409 118.283 21.6417 117.793 21.9979C117.303 22.3542 116.791 22.666 116.279 22.9332L116.235 22.8441C116.702 22.4878 117.17 22.1316 117.593 21.7307C118.016 21.3299 118.395 20.9069 118.706 20.4393C119.018 19.9717 119.241 19.4595 119.33 18.9474L119.352 18.747C119.352 18.6802 119.352 18.6134 119.352 18.5466C119.352 18.4798 119.352 18.413 119.352 18.3462L119.33 18.1458C119.307 17.9008 119.218 17.6559 119.107 17.411C118.884 16.9433 118.528 16.5425 118.105 16.2308C117.905 16.0749 117.66 15.9413 117.437 15.83C117.192 15.7187 116.947 15.6296 116.702 15.5851C115.656 15.3401 114.542 15.4069 113.429 15.6296L112.382 15.83L112.872 14.8725C112.984 14.6499 113.028 14.4049 112.984 14.1377C112.939 13.8705 112.828 13.6033 112.65 13.3806C112.293 12.913 111.759 12.5345 111.18 12.4677C110.557 12.3786 109.911 12.49 109.287 12.7126C108.664 12.9576 108.04 13.2916 107.439 13.6478L105.591 14.8057L106.927 13.0912C107.172 12.7572 107.395 12.4009 107.551 12.0224C107.64 11.8219 107.706 11.6438 107.751 11.4434C107.773 11.3543 107.795 11.243 107.818 11.1317C107.84 11.0203 107.862 10.9313 107.862 10.8645C107.862 10.7754 107.862 10.7309 107.84 10.7086C107.84 10.6863 107.84 10.6863 107.818 10.6863C107.795 10.6863 107.729 10.6863 107.662 10.7086C107.573 10.7309 107.461 10.7754 107.372 10.8199C106.949 10.9758 106.549 11.1317 106.125 11.3098C104.478 11.9778 102.897 12.7794 101.36 13.6701C100.581 14.1154 99.8462 14.5831 99.1114 15.0952C98.3988 15.6073 97.6863 16.164 97.1964 16.8765C96.9515 17.2328 96.7733 17.6336 96.7065 18.0567C96.6397 18.4798 96.7065 18.9028 96.8847 19.3036C97.0628 19.7045 97.33 20.0607 97.6863 20.2834C97.8644 20.3947 98.0648 20.4838 98.2652 20.5283C98.4879 20.5729 98.6883 20.5506 98.911 20.4838L98.8219 20.5729Z" fill="#6E1427"/>
<path d="M109.577 74.5924C110.133 87.6186 110.712 100.667 111.269 113.715C111.403 116.989 111.558 120.24 111.67 123.513C113.028 122.199 114.631 121.175 116.368 120.596C115.566 105.967 114.765 91.3594 113.963 76.73C113.919 76.1066 113.896 75.4831 113.651 74.9264C113.006 73.4123 110.734 72.9224 109.51 74.0135C109.332 74.1693 109.154 74.4588 109.309 74.6592C109.398 74.726 109.51 74.6815 109.577 74.5924ZM109.554 74.2584C109.554 74.3029 109.554 74.3475 109.554 74.392H109.532L109.554 74.2584Z" fill="#6E1427"/>
<path d="M97.5528 27.0974C95.7937 26.5185 93.8342 26.8302 92.1865 27.6764C90.5387 28.5225 89.1804 29.8363 88.0003 31.2391C87.7331 31.5731 87.4436 31.9293 87.3323 32.3524C87.1096 33.1318 87.4881 33.9779 88.1116 34.49C88.7351 35.0022 89.5367 35.2249 90.3383 35.3139C92.5427 35.5811 94.903 34.8909 96.3949 33.2208C97.8868 31.5508 98.2876 28.9456 97.1075 27.0529" fill="#AE1832"/>
<path d="M96.9738 26.8519C95.1924 26.7183 93.4333 27.4977 92.0973 28.6555C90.7613 29.8357 89.8038 31.3721 89.0467 32.9976C88.8686 33.3761 88.6905 33.7769 88.6905 34.2C88.6682 34.9794 89.2249 35.6696 89.9374 36.0036C90.6277 36.3376 91.4516 36.3599 92.2086 36.2486C94.324 35.9591 96.3948 34.7567 97.3746 32.864C98.3766 30.9713 98.1317 28.4106 96.573 26.941" fill="#F34D56"/>
<path d="M157.161 34.8017C157.206 34.49 157.228 34.156 157.095 33.8665C156.738 33.1317 155.692 33.2208 154.912 33.4657C149.301 35.1135 143.913 37.5628 138.969 40.7247C145.182 35.6701 151.728 30.0589 153.71 22.2877C153.821 21.8646 153.91 21.3747 153.732 20.9739C153.242 19.8383 151.528 20.2837 150.459 20.9294C147.832 22.5104 145.204 24.0913 142.577 25.7168C143.022 26.4961 143.356 27.32 143.623 28.1884C144.135 30.0143 144.024 32.2855 142.51 33.3321C141.062 34.3341 139.103 33.6884 137.388 33.1762C135.674 32.6641 133.536 32.4192 132.467 33.8442C131.799 34.7572 131.621 36.2491 130.53 36.494C130.53 36.494 132.868 41.5486 127.68 41.5486C124.696 41.5486 123.16 40.1458 122.403 38.9656C120.421 40.4575 118.506 42.0607 116.791 43.8421C116.435 39.9231 115.812 36.0264 114.921 32.1965C113.919 27.988 112.516 23.7128 109.599 20.5063C108.241 19.0144 106.46 17.7675 104.455 17.5448C102.451 17.3222 100.536 18.1238 99.245 20.0165L98.7329 21.1966C94.7471 29.6803 92.7208 38.0972 91.6297 47.4048C91.0953 51.925 90.9172 56.5788 92.0305 60.9877C93.1439 65.4188 95.6823 69.6272 99.579 71.9653C102.785 73.9025 106.615 75.2162 110.356 75.5057C116.235 75.9733 122.314 75.1049 127.903 73.1677C133.492 71.2527 138.591 67.2669 140.706 61.767C140.817 61.4998 140.907 61.2103 140.907 60.9209C140.884 59.6516 139.192 59.2731 137.923 59.2731C143.245 57.2691 148.5 55.0424 153.621 52.5707C153.866 51.3683 152.174 50.8339 150.971 50.8562C146.429 50.923 141.886 51.3906 137.433 52.2813C141.886 49.6538 146.34 47.0485 150.459 43.9089C153.532 41.5709 156.582 38.6316 157.161 34.8017Z" fill="#EBE7D3"/>
<path d="M95.0591 26.7407C93.8344 27.3864 92.6988 28.2326 91.7414 29.19C91.2515 29.6799 90.8061 30.192 90.4053 30.7487C90.294 30.8823 90.2049 31.0159 90.1159 31.1718C90.0268 31.3054 89.9377 31.4613 89.8487 31.5949C89.6705 31.8843 89.4924 32.1738 89.3588 32.4855C89.0693 33.0868 88.9134 33.7102 89.0025 34.3114C89.0248 34.6009 89.1138 34.8904 89.2475 35.1353C89.3143 35.2689 89.3811 35.3802 89.4701 35.4693C89.5592 35.5806 89.6483 35.6697 89.7596 35.7588C90.2049 36.0928 90.8507 36.2264 91.4741 36.1596C92.0976 36.0928 92.7434 35.8256 93.2778 35.3802L93.3446 35.4248C92.9883 36.0483 92.3426 36.5381 91.6078 36.7385C90.8729 36.9389 90.0268 36.8944 89.292 36.4491C89.1139 36.3377 88.958 36.2041 88.8021 36.026C88.6685 35.8701 88.5349 35.692 88.4458 35.4916C88.2677 35.113 88.1786 34.7122 88.1564 34.3114C88.1564 33.9106 88.2009 33.5098 88.3122 33.1536C88.4236 32.7973 88.5794 32.441 88.7576 32.1293C88.9357 31.8175 89.1361 31.5058 89.3365 31.2163C89.4479 31.0827 89.5369 30.9269 89.6483 30.7933C89.7596 30.6597 89.8709 30.5038 89.9823 30.3702C90.4499 29.8135 90.9397 29.3236 91.4741 28.856C92.543 27.9431 93.7676 27.1637 95.0591 26.6293V26.7407Z" fill="#6E1427"/>
<path d="M93.7449 27.2306C92.7206 27.5423 91.7186 27.9654 90.8279 28.5666C89.9372 29.1456 89.1356 29.8581 88.4453 30.6374C88.1113 31.0383 87.7996 31.4836 87.5547 31.9067C87.3097 32.352 87.0871 32.7751 87.0203 33.2204C86.8644 34.0443 87.4433 35.0463 88.4899 35.358V35.4471C88.2004 35.4916 87.9109 35.4694 87.6215 35.358C87.332 35.2467 87.0648 35.0908 86.8421 34.8904C86.6195 34.6678 86.4191 34.4006 86.3077 34.1111C86.1964 33.7994 86.1296 33.4654 86.1518 33.1314C86.1741 32.7973 86.2632 32.4856 86.3745 32.2184C86.4859 31.9289 86.6417 31.684 86.8199 31.4391C87.1539 30.9715 87.5324 30.5484 87.9332 30.1698C88.334 29.769 88.7571 29.4128 89.2024 29.0788C89.6478 28.7448 90.1154 28.4553 90.6275 28.1881C91.1174 27.9431 91.6295 27.7205 92.1417 27.5423C92.6538 27.3642 93.1882 27.2306 93.7226 27.1415L93.7449 27.2306Z" fill="#6E1427"/>
<path d="M109.621 76.4405C110.334 78.6672 111.959 80.5822 114.052 81.6064C113.896 79.8028 113.741 77.9992 113.607 76.1956C113.585 76.0397 113.585 75.8838 113.496 75.7725C113.295 75.483 112.872 75.5053 112.538 75.5721C112.004 75.6612 111.447 75.7725 110.913 75.8616C110.556 75.9284 110.178 75.9952 109.933 76.2624C109.688 76.5296 109.688 77.0417 110.022 77.1753" fill="#2F1012"/>
<path d="M98.8663 20.9957C96.6173 29.1232 94.3684 37.3842 94.3684 45.8011C94.3684 54.218 96.9513 63.0135 103.075 68.8029C106.17 71.7199 110.022 73.7462 113.941 75.4384C107.617 76.1287 101.405 74.3474 96.2833 70.5843C94.3238 69.1592 93.2328 67.5782 92.164 65.396C91.0951 63.1916 90.7611 57.8921 90.6498 55.4427C90.1154 43.285 93.5668 33.3539 98.2874 22.7103" fill="#CFCAB6"/>
<path d="M98.7552 21.1293C96.2613 21.6192 93.8564 22.688 91.8301 24.2244C91.5407 24.4471 91.2289 24.7588 91.3402 25.1151C91.4071 25.2933 91.5629 25.4269 91.7411 25.5382C93.1884 26.4734 94.7916 27.1637 96.4839 27.5199" fill="#6E1427"/>
<path d="M98.2432 57.1131C98.4658 60.364 98.7776 63.8154 100.693 66.4652C102.607 69.115 106.727 70.451 109.198 68.3134C109.555 68.0016 109.889 67.6008 110.334 67.4004C111.937 66.6211 113.429 68.4915 114.854 69.5603C117.014 71.1858 120.332 70.9631 122.247 69.0927C123.338 68.0239 124.14 66.4207 125.654 66.1535C126.878 65.9308 128.059 66.7101 129.306 66.7547C131.131 66.8215 132.623 65.3296 133.648 63.8377C137.455 58.271 138.146 50.7225 135.474 44.5545C135.028 47.0484 134.939 49.6091 134.427 52.0807C133.915 54.5524 132.913 57.0685 130.998 58.7163C129.083 60.3863 126.099 60.9653 123.961 59.607C123.293 62.2567 119.441 65.2182 116.747 64.7952C114.231 64.3944 112.338 61.6333 112.249 59.0726C112.249 58.8722 112.004 58.7608 111.848 58.9167C109.31 61.3438 105.658 63.86 102.251 63.6596C99.2452 63.4814 98.2654 60.2304 97.976 57.2467" fill="#CFCAB6"/>
<path d="M77.7792 66.3314C76.51 67.4225 75.5748 68.9589 75.5303 70.6067C75.4857 72.2767 76.4655 73.9913 78.0464 74.5034C79.0707 74.8374 80.2509 74.637 81.1861 74.1249C82.1436 73.5905 82.9006 72.7666 83.5018 71.8759C84.3257 70.629 84.8824 69.1816 84.8379 67.6897C84.8156 67.044 84.682 66.3982 84.348 65.8638C83.6354 64.706 82.099 64.2161 80.7407 64.461C79.4493 64.6837 78.2691 65.463 77.5788 66.5764" fill="#D11243"/>
<path d="M137.611 60.609C133.581 61.8559 129.884 64.1494 127.012 67.2445C126.7 67.5785 126.411 67.9348 126.299 68.3579C126.144 69.0704 126.611 69.7829 127.257 70.1392C127.88 70.4732 128.66 70.4955 129.372 70.4064C133.18 69.9611 136.164 67.0441 138.613 64.1049C139.615 62.9025 140.617 61.5442 140.617 59.9855C139.281 59.9187 137.945 60.2304 136.765 60.8984" fill="#B7B3A5"/>
<path d="M75.5528 70.6292C75.5528 71.0745 75.6419 71.5199 75.7977 71.9429C75.9313 72.366 76.154 72.7668 76.4212 73.1231C76.9556 73.8356 77.735 74.3255 78.5811 74.4146C79.4272 74.5259 80.2957 74.281 81.0305 73.8579C81.7653 73.4126 82.3887 72.7891 82.8786 72.0765C83.1236 71.7203 83.3462 71.3417 83.5466 70.9409C83.747 70.5401 83.9029 70.1393 84.0142 69.7385C84.1256 69.3377 84.2146 68.9146 84.2592 68.4916C84.2814 68.2912 84.3037 68.0685 84.3037 67.8681C84.3037 67.6677 84.3037 67.445 84.2814 67.2446C84.2369 66.8438 84.1256 66.4653 83.9474 66.109C83.7693 65.775 83.5021 65.4633 83.1681 65.2183C82.8341 64.9734 82.4555 64.7953 82.0325 64.6617C81.6094 64.5281 81.1641 64.4835 80.7187 64.4835L80.6965 64.3944C81.1418 64.2386 81.6317 64.194 82.1215 64.2163C82.3665 64.2386 82.6114 64.2831 82.8564 64.3276C83.1013 64.3944 83.324 64.4835 83.5466 64.5948C83.658 64.6394 83.7693 64.7285 83.8806 64.7953C83.992 64.8843 84.1033 64.9511 84.1924 65.0402C84.3928 65.2183 84.5709 65.4187 84.7268 65.6191C85.0385 66.0645 85.1944 66.5543 85.2835 67.0665C85.3725 67.5786 85.3725 68.0685 85.328 68.5584C85.2612 69.0482 85.1498 69.5381 84.994 70.0057C84.6377 70.9187 84.1478 71.7648 83.5689 72.4996C82.99 73.2567 82.2551 73.9247 81.3867 74.3923C80.9414 74.615 80.4961 74.7708 80.0062 74.8599C79.5163 74.949 79.0264 74.949 78.5366 74.8599C78.2916 74.8154 78.069 74.7486 77.824 74.6372C77.7795 74.615 77.7127 74.5927 77.6459 74.5704L77.49 74.4814C77.3787 74.4368 77.2896 74.3478 77.1783 74.281C76.7775 74.0138 76.4435 73.6352 76.1763 73.2567C75.6641 72.4551 75.3969 71.4976 75.4637 70.5847L75.5528 70.6292Z" fill="#6E1427"/>
<path d="M74.1503 66.4653C73.2597 67.111 71.9014 66.8438 71.0998 66.0868C70.2982 65.3297 69.8973 64.2163 69.6524 63.1475C69.1625 60.8986 69.1848 58.5383 69.7192 56.2893C70.1868 54.3966 71.0107 52.5707 71.1888 50.6112C71.2556 49.9432 71.1888 49.1416 70.6322 48.7408C70.2536 48.4513 69.7192 48.4513 69.2516 48.4959C65.3326 48.8521 61.859 52.1476 61.3023 56.0444C58.8975 55.5768 56.6262 54.5079 54.7113 52.9715C54.1991 52.5485 53.6647 52.014 53.7093 51.346C53.7315 50.923 54.021 50.5444 54.2882 50.2104C56.5372 47.3603 59.1647 44.7773 62.282 42.9069C65.3994 41.0364 69.0067 39.9454 72.6362 40.1458C75.375 40.3016 78.4256 41.5931 79.1159 44.2206C79.7839 46.759 78.0025 49.2307 76.4884 51.3906C74.9742 53.5505 73.6382 56.4897 75.0855 58.6719C75.9985 60.0747 77.9803 61.0544 77.7799 62.7022C77.6908 63.3702 77.2454 63.9269 76.7778 64.3945C75.9317 65.2629 74.9742 66.02 73.9054 66.6212" fill="#D11243"/>
<path d="M74.1947 66.5099C73.883 66.7326 73.5267 66.8662 73.1704 66.8884C72.7919 66.9107 72.4356 66.8662 72.0793 66.7326C71.7231 66.6212 71.4113 66.4208 71.1219 66.1759C70.8324 65.931 70.6097 65.6415 70.4093 65.3298C70.0085 64.7063 69.7858 63.9937 69.6077 63.3035C69.4296 62.5909 69.3182 61.8784 69.2514 61.1436C69.1178 59.6962 69.1846 58.2266 69.4741 56.8015C69.7413 55.3542 70.2757 53.9959 70.632 52.6153C70.8101 51.925 70.966 51.2125 71.0105 50.5222C71.0328 50.1882 71.0105 49.8319 70.9215 49.5202C70.8324 49.2085 70.632 48.9635 70.3648 48.8299C70.0976 48.6963 69.7636 48.6741 69.4073 48.7186C69.2292 48.7186 69.051 48.7631 68.8952 48.7854C68.717 48.8077 68.5389 48.8299 68.383 48.8745L67.8709 49.0081L67.381 49.1862C67.2029 49.2307 67.047 49.3198 66.8911 49.3866C66.7353 49.4534 66.5571 49.5202 66.4235 49.6093L65.9559 49.8542C65.8001 49.9433 65.6665 50.0546 65.5106 50.1437C65.4438 50.1882 65.3547 50.2328 65.2879 50.2773L65.0875 50.4332L64.8871 50.589C64.8203 50.6336 64.7535 50.7004 64.6867 50.7672L64.2859 51.1234C64.1523 51.2348 64.041 51.3684 63.9074 51.502L63.7292 51.7024L63.5511 51.9028C63.4398 52.0364 63.3284 52.17 63.2171 52.3036C62.794 52.8603 62.46 53.4837 62.1705 54.1072C61.9033 54.7529 61.7252 55.421 61.6139 56.1112L61.5693 56.423L61.2576 56.3562C59.8548 56.089 58.4965 55.6214 57.2273 54.9979C56.5815 54.6861 55.9803 54.3076 55.3791 53.9068C55.0897 53.7064 54.8002 53.4837 54.5107 53.2611C54.2212 53.0384 53.9318 52.7934 53.7091 52.4594C53.5978 52.3036 53.4864 52.1032 53.4196 51.9028C53.3528 51.7024 53.3306 51.4574 53.3751 51.2348C53.3974 51.0121 53.4864 50.8117 53.5755 50.6336C53.6646 50.4554 53.7759 50.2996 53.8872 50.1437C54.3326 49.587 54.7557 49.0303 55.2233 48.4959C55.6909 47.9615 56.1585 47.4494 56.6483 46.9372C57.1382 46.4251 57.6504 45.9352 58.1848 45.4676C58.7192 45 59.2536 44.5324 59.8103 44.1093C60.3669 43.6863 60.9459 43.2632 61.5471 42.8847C62.7495 42.1276 64.0187 41.4596 65.3325 40.9252C67.9822 39.8786 70.8992 39.3887 73.7939 39.7895C74.5064 39.9009 75.2413 40.1013 75.9093 40.3685C76.5995 40.6357 77.2453 41.0142 77.8465 41.4818C78.4254 41.9717 78.9376 42.5729 79.2716 43.2855C79.6056 43.998 79.7614 44.7773 79.7169 45.5567C79.6946 46.336 79.4942 47.0708 79.2048 47.7389C78.9153 48.4291 78.559 49.0526 78.2028 49.6538C77.8242 50.255 77.4234 50.834 77.0003 51.4129C76.7999 51.7024 76.5995 51.9696 76.4214 52.259C76.2433 52.5485 76.0651 52.838 75.887 53.1275C75.553 53.7064 75.2635 54.3299 75.0854 54.9533C74.885 55.5768 74.7736 56.2448 74.8182 56.8683C74.8627 57.514 75.0631 58.1153 75.4417 58.6497C75.8202 59.1841 76.3323 59.6517 76.7999 60.1638C77.0449 60.431 77.2898 60.6982 77.4902 61.01C77.6906 61.3217 77.891 61.6557 77.9578 62.0565C78.0246 62.435 78.0024 62.8359 77.8465 63.1921C77.7129 63.5484 77.4902 63.8601 77.2675 64.1273C76.3101 65.1739 75.1744 66.0423 73.9275 66.688L73.883 66.599C74.4842 66.2427 75.0408 65.8196 75.553 65.3743C75.8202 65.1516 76.0651 64.9067 76.3101 64.6617C76.555 64.4168 76.7999 64.1719 77.0003 63.9047C77.2007 63.6375 77.3789 63.348 77.4679 63.0585C77.557 62.769 77.5793 62.435 77.5125 62.1456C77.4457 61.8338 77.2898 61.5666 77.0894 61.2994C76.889 61.0322 76.6663 60.7873 76.4214 60.5646C75.9315 60.097 75.3971 59.6294 74.9295 59.0282C74.4842 58.427 74.1947 57.6922 74.1279 56.9351C74.0611 56.178 74.1724 55.4432 74.3506 54.7307C74.551 54.0181 74.8404 53.3501 75.1745 52.7267C75.3526 52.4149 75.5307 52.1032 75.7089 51.7914C75.887 51.4797 76.1097 51.1902 76.2878 50.9008C76.6886 50.3218 77.0671 49.7651 77.4234 49.1639C77.7797 48.585 78.0914 47.9838 78.3364 47.3826C78.5813 46.7591 78.7372 46.1356 78.7372 45.5122C78.7594 44.8887 78.6258 44.2652 78.3586 43.7308C78.0914 43.1741 77.6906 42.6843 77.2007 42.2834C76.7109 41.8826 76.1319 41.5709 75.5307 41.326C74.9295 41.081 74.2838 40.9029 73.638 40.7916C73.4822 40.7693 73.304 40.747 73.1482 40.7248C72.9923 40.7025 72.8141 40.7025 72.6583 40.6802C72.3243 40.658 71.9903 40.6357 71.6563 40.658C71.3223 40.658 70.9883 40.6802 70.6543 40.6802C70.3203 40.7025 69.9862 40.7248 69.6522 40.7916C68.9842 40.8806 68.3162 41.0142 67.6482 41.1701C66.9802 41.3482 66.3345 41.5264 65.711 41.7713C63.1503 42.7288 60.8123 44.2429 58.7637 46.0466C58.2516 46.4919 57.7394 46.9818 57.2496 47.4716C56.7597 47.9615 56.2921 48.4737 55.8245 48.9858C55.3569 49.4979 54.9115 50.0323 54.4884 50.5668C54.288 50.834 54.1322 51.0789 54.0876 51.3238C54.0431 51.5688 54.1322 51.8137 54.288 52.0586C54.4439 52.3036 54.6888 52.5262 54.9561 52.7267C55.2233 52.9493 55.4905 53.1497 55.7799 53.3501C56.3366 53.7509 56.9155 54.1072 57.539 54.4189C58.7637 55.0424 60.0552 55.51 61.3912 55.7772L61.0349 56.0222C61.1685 55.2873 61.3689 54.5525 61.6584 53.8623C61.9701 53.1943 62.3487 52.5262 62.794 51.9473C62.9054 51.7914 63.039 51.6578 63.1503 51.5242L63.3284 51.3016L63.5288 51.1012C63.6624 50.9676 63.7738 50.834 63.9296 50.7004L64.3527 50.3441C64.4195 50.2773 64.4863 50.2328 64.5754 50.166L64.798 49.9878L65.0207 49.8319C65.0875 49.7874 65.1766 49.7206 65.2434 49.6761C65.3993 49.587 65.5551 49.4757 65.711 49.3866L66.2009 49.1417C66.3567 49.0526 66.5349 48.9858 66.713 48.919C66.8911 48.8522 67.047 48.7631 67.2251 48.7186L67.7596 48.5405L68.294 48.4291C68.4721 48.3846 68.6502 48.3623 68.8506 48.3401C69.0288 48.3178 69.2069 48.2955 69.4073 48.2733C69.7858 48.251 70.1867 48.2733 70.5875 48.4514C70.7879 48.5405 70.9437 48.6963 71.0773 48.8522C71.2109 49.0303 71.3 49.2085 71.3445 49.4089C71.4559 49.7874 71.4559 50.1882 71.4336 50.5668C71.3668 51.3016 71.2109 52.0141 71.0105 52.7267C70.6097 54.1295 70.0753 55.4655 69.7858 56.8683C69.4964 58.2711 69.4073 59.7185 69.5186 61.1436C69.5632 61.8561 69.6745 62.5686 69.8304 63.2589C69.9862 63.9492 70.2089 64.6395 70.5875 65.2629C70.7656 65.5747 70.9883 65.8419 71.2555 66.0868C71.5227 66.3095 71.8344 66.5099 72.1461 66.6212C72.4801 66.7326 72.8364 66.7994 73.1927 66.7771C73.549 66.7548 73.883 66.6435 74.1724 66.4431L74.1947 66.5099Z" fill="#6E1427"/>
<g opacity="0.7">
<path opacity="0.7" d="M91.5628 148.741H160.034C158.497 148.073 156.983 147.316 155.536 146.47C154.133 145.668 152.752 144.778 151.194 144.355C148.878 143.731 146.295 144.265 144.402 145.735C144.647 142.863 143.022 139.901 140.439 138.587C137.878 137.274 134.516 137.697 132.334 139.589C133.202 135.426 132.734 130.883 130.485 127.254C128.236 123.624 124.095 121.108 119.842 121.331C115.589 121.553 111.759 124.47 109.71 128.233C107.684 131.974 107.239 136.428 107.729 140.681C104.99 136.717 99.7793 134.245 95.1923 135.715C90.6053 137.185 87.7551 143.197 90.3381 147.272C90.6944 147.806 91.0952 148.296 91.5628 148.741Z" fill="#F08986"/>
</g>
<path d="M133.091 138.209C134.916 136.695 137.522 136.138 139.882 136.628C139.927 136.516 139.927 136.405 139.927 136.294C139.927 134.958 137.455 133.733 133.447 132.842C133.625 134.624 133.491 136.45 133.091 138.209Z" fill="#CAC4BC"/>
<path d="M98.3766 133.534C101.761 134.046 104.99 136.072 106.972 138.811C106.682 136.406 106.704 133.934 107.172 131.552C103.431 131.997 100.358 132.687 98.3766 133.534Z" fill="#CAC4BC"/>
<g opacity="0.7">
<path opacity="0.7" d="M93.9011 134.735C94.5023 134.535 95.1258 134.424 95.7492 134.357C92.9881 129.859 86.1299 128.434 81.8769 131.618C80.0733 132.954 78.7373 134.936 76.6664 135.827C74.7292 136.65 72.5248 136.316 70.454 135.871C68.4054 135.426 66.3123 134.847 64.2192 135.203C62.4156 135.515 60.6342 136.762 60.1666 138.454H89.3586C90.3829 136.739 91.9861 135.337 93.9011 134.735Z" fill="#F08986"/>
</g>
<path opacity="0.35" d="M142.287 128.478C141.708 128.79 141.574 129.502 141.73 129.948C141.819 130.17 141.953 130.282 142.131 130.349C142.287 130.415 142.51 130.438 142.688 130.393C142.888 130.349 143.044 130.215 143.088 130.104C143.133 129.992 143.178 129.926 143.311 129.814C143.422 129.703 143.556 129.525 143.69 129.302C143.801 129.057 143.912 128.745 143.957 128.3L144.135 128.166C144.625 128.278 145.003 128.656 145.204 129.102C145.427 129.547 145.471 130.104 145.315 130.66C145.226 130.928 145.093 131.195 144.914 131.417C144.736 131.64 144.469 131.84 144.202 131.952C143.645 132.197 143.088 132.197 142.599 132.13C142.086 132.041 141.597 131.818 141.218 131.44C141.04 131.239 140.884 131.017 140.795 130.772C140.706 130.527 140.661 130.26 140.661 130.037C140.684 129.547 140.862 129.124 141.151 128.79C141.307 128.634 141.463 128.5 141.641 128.389C141.842 128.3 142.042 128.256 142.242 128.256L142.287 128.478Z" fill="#4B4F54"/>
<path opacity="0.35" d="M97.5527 123.023C97.0851 123.268 96.9738 123.847 97.1074 124.203C97.1742 124.381 97.2855 124.47 97.4191 124.537C97.5527 124.604 97.7086 124.604 97.8644 124.582C98.0203 124.559 98.1539 124.448 98.1984 124.359C98.243 124.27 98.2652 124.225 98.3766 124.136C98.4656 124.047 98.577 123.914 98.666 123.713C98.7551 123.513 98.8442 123.268 98.8887 122.912L99.0223 122.8C99.4008 122.889 99.7126 123.179 99.8907 123.557C100.069 123.914 100.113 124.359 99.9798 124.804C99.913 125.027 99.8017 125.227 99.6458 125.428C99.4899 125.606 99.2895 125.762 99.0668 125.873C98.6215 126.051 98.1762 126.073 97.7754 126.007C97.3746 125.94 96.9738 125.762 96.662 125.45C96.5061 125.294 96.3948 125.116 96.328 124.916C96.2612 124.715 96.2167 124.515 96.2167 124.314C96.2389 123.936 96.3948 123.58 96.6175 123.312C96.7288 123.179 96.8624 123.067 97.0183 123.001C97.1741 122.934 97.33 122.889 97.4859 122.889L97.5527 123.023Z" fill="#4B4F54"/>
<path opacity="0.35" d="M69.6076 143.13C69.14 143.375 69.0287 143.954 69.1623 144.31C69.2291 144.489 69.3404 144.578 69.474 144.644C69.6076 144.711 69.7635 144.711 69.9194 144.689C70.0752 144.667 70.2088 144.555 70.2534 144.466C70.2979 144.377 70.3202 144.333 70.4315 144.244C70.5206 144.155 70.6319 144.021 70.721 143.821C70.81 143.62 70.8991 143.375 70.9436 143.019L71.0772 142.908C71.4558 142.997 71.7675 143.286 71.9457 143.665C72.1238 144.021 72.1683 144.466 72.0347 144.912C71.9679 145.134 71.8566 145.335 71.7007 145.535C71.5448 145.713 71.3444 145.869 71.1218 145.98C70.6764 146.159 70.2311 146.181 69.8303 146.114C69.4295 146.047 69.0287 145.869 68.7169 145.557C68.5611 145.401 68.4497 145.223 68.3829 145.023C68.3161 144.823 68.2716 144.622 68.2716 144.422C68.2939 144.043 68.4497 143.687 68.6724 143.42C68.7837 143.286 68.9173 143.175 69.0732 143.108C69.2291 143.041 69.385 142.997 69.5408 142.997L69.6076 143.13Z" fill="#4B4F54"/>
<path d="M79.472 149.187L90.4274 149.054L101.405 148.92L123.316 148.72L134.271 148.586C137.923 148.542 141.575 148.542 145.226 148.586L150.704 148.675C152.53 148.72 154.356 148.742 156.182 148.787C159.834 148.876 163.485 149.009 167.137 149.21V149.343C163.485 149.544 159.834 149.655 156.182 149.766C154.356 149.811 152.53 149.855 150.704 149.878L145.226 149.967C141.575 150.011 137.923 150.011 134.271 149.967L123.316 149.833L101.405 149.633L90.4497 149.499L79.4943 149.365L79.472 149.187Z" fill="#6E1427"/>
<path d="M128.994 64.5725C130.82 63.7486 132.601 62.9024 134.427 62.0786L139.838 59.5401L145.249 57.0017C146.139 56.5786 147.052 56.1555 147.943 55.7102C148.834 55.2649 149.702 54.7973 150.504 54.2629C150.904 53.9956 151.305 53.7062 151.684 53.3944C152.062 53.0827 152.418 52.771 152.752 52.4147L152.886 52.2811L152.997 52.1475L153.109 52.0139C153.153 51.9694 153.198 51.9248 153.22 51.8803C153.287 51.8135 153.309 51.7244 153.309 51.7022C153.309 51.7022 153.309 51.7022 153.309 51.7244C153.309 51.7467 153.331 51.7467 153.309 51.7467C153.287 51.7244 153.198 51.6799 153.086 51.6354C152.975 51.5908 152.864 51.5463 152.775 51.524C152.552 51.4572 152.329 51.4127 152.107 51.3904C151.194 51.2568 150.214 51.3681 149.257 51.5018C148.277 51.6354 147.297 51.769 146.317 51.9026C144.358 52.1698 142.398 52.4815 140.461 52.86C138.502 53.2163 136.564 53.6171 134.627 54.0402L134.249 54.1292L134.56 53.9066L134.828 53.7062L134.894 53.773L134.649 54.0179L134.583 53.8843C136.453 53.1495 138.368 52.5706 140.305 52.0584C140.795 51.9248 141.285 51.8135 141.753 51.7022C142.242 51.5908 142.732 51.4795 143.222 51.3904C144.202 51.19 145.182 51.0119 146.184 50.8783C147.186 50.7447 148.165 50.6333 149.168 50.5443C149.657 50.4997 150.17 50.4552 150.682 50.4552C151.194 50.4552 151.728 50.4775 152.263 50.5665C152.53 50.6111 152.797 50.6779 153.042 50.7669C153.176 50.8115 153.309 50.856 153.42 50.9228C153.532 50.9673 153.688 51.0341 153.866 51.19C153.955 51.2568 154.044 51.3681 154.066 51.5018C154.111 51.6354 154.111 51.769 154.089 51.9026C154.044 52.1252 153.933 52.2588 153.821 52.3924C153.777 52.4592 153.732 52.5038 153.688 52.5483L153.554 52.6819L153.42 52.8155L153.287 52.9491C152.931 53.3054 152.53 53.6394 152.129 53.9511C151.728 54.2629 151.305 54.5523 150.86 54.8195C149.123 55.8883 147.275 56.6454 145.471 57.4693L140.016 59.8964C136.364 61.4996 132.734 63.1251 129.06 64.6838L128.994 64.5725Z" fill="#6E1427"/>
<path d="M135.451 49.1858C142.309 45.1109 148.767 40.3681 154.712 35.0685C154.912 34.8904 155.135 34.7123 155.38 34.69C156.048 34.6455 156.293 35.5584 156.159 36.2041C155.67 38.7426 153.421 40.5239 151.327 42.0381C148.655 43.9753 146.006 45.9125 143.334 47.8498C140.817 49.6756 138.145 51.5683 135.05 51.9469C135.073 50.9449 135.095 49.9651 135.139 48.9854" fill="#CFCAB6"/>
<path d="M137.21 51.702L139.949 50.0097C140.862 49.4531 141.775 48.8741 142.665 48.2952C144.469 47.1373 146.228 45.9349 147.965 44.6879C149.702 43.441 151.372 42.105 152.841 40.5908C153.576 39.8337 154.267 39.0321 154.868 38.1637C155.179 37.7407 155.447 37.2953 155.714 36.8277C155.781 36.7164 155.847 36.605 155.892 36.4937C155.959 36.3824 156.003 36.271 156.07 36.1374C156.181 35.8925 156.293 35.6921 156.36 35.4694C156.426 35.2468 156.471 35.0241 156.449 34.8237C156.426 34.6233 156.36 34.5119 156.248 34.4006C156.137 34.3115 155.981 34.2447 155.758 34.2447C155.558 34.2447 155.313 34.267 155.09 34.3338C154.979 34.3561 154.845 34.4006 154.734 34.4451L154.356 34.5565L153.576 34.8014L152.04 35.2913C149.991 35.937 147.987 36.605 146.005 37.3844C145.026 37.7629 144.046 38.2083 143.066 38.6536L140.149 39.9896C138.19 40.8803 136.23 41.771 134.249 42.5948L134.204 42.5058C136.052 41.4147 137.945 40.3904 139.838 39.3661C140.773 38.854 141.73 38.3641 142.688 37.852C143.645 37.3621 144.625 36.8945 145.627 36.4714C147.631 35.603 149.68 34.935 151.75 34.3338C152.262 34.1779 152.797 34.0443 153.309 33.8885L154.088 33.6658L154.467 33.5545C154.601 33.5099 154.734 33.4877 154.89 33.4431C155.179 33.3763 155.491 33.3318 155.803 33.3541C155.959 33.3541 156.137 33.3986 156.315 33.4654C156.493 33.5322 156.649 33.6213 156.805 33.7549C156.939 33.8885 157.072 34.0443 157.139 34.2225C157.206 34.4006 157.25 34.5787 157.273 34.7569C157.295 35.1131 157.228 35.4249 157.117 35.6921C157.028 35.9816 156.894 36.2488 156.76 36.4714C156.694 36.5828 156.627 36.7164 156.56 36.8277C156.493 36.939 156.426 37.0726 156.36 37.184C156.07 37.6516 155.781 38.1192 155.447 38.5423C154.801 39.4329 154.066 40.2345 153.287 40.9916C151.728 42.5058 149.991 43.8195 148.232 45.0442C144.669 47.4713 140.973 49.6312 137.232 51.7466L137.21 51.702Z" fill="#6E1427"/>
<path d="M142.309 24.8707C143.133 24.3363 143.979 23.8019 144.825 23.312C145.671 22.8222 146.562 22.3546 147.453 21.9315C148.366 21.5084 149.301 21.1744 150.258 20.9072C150.503 20.8404 150.748 20.7736 150.993 20.7291C151.238 20.6623 151.483 20.6177 151.75 20.5955C152.018 20.5732 152.307 20.5955 152.574 20.7068C152.641 20.7291 152.708 20.7736 152.775 20.8181C152.841 20.8627 152.908 20.9072 152.953 20.9517C152.997 20.9963 153.064 21.0408 153.109 21.1076C153.153 21.1744 153.198 21.2189 153.242 21.2857C153.398 21.5529 153.465 21.8202 153.465 22.1096C153.487 22.3768 153.465 22.644 153.398 22.9112C153.354 23.1784 153.287 23.4234 153.198 23.6683C153.153 23.8019 153.109 23.9132 153.042 24.0246L152.886 24.3586C152.485 25.2715 151.995 26.1399 151.505 27.0084C151.016 27.8768 150.459 28.7229 149.902 29.5468C149.346 30.3707 148.722 31.15 148.099 31.9294C147.475 32.7087 146.807 33.4435 146.117 34.1783C145.427 34.8909 144.714 35.6034 143.979 36.2937C142.51 37.652 140.929 38.8766 139.259 39.99C137.589 41.1033 135.852 42.0831 134.07 42.9515C132.289 43.8199 130.441 44.5993 128.548 45.2005L128.504 45.1114C129.394 44.666 130.263 44.2207 131.131 43.7531C131.576 43.5304 132 43.2855 132.423 43.0406L133.068 42.6843L133.714 42.328C134.56 41.8381 135.406 41.326 136.23 40.7916C136.653 40.5244 137.054 40.2572 137.455 39.99C137.856 39.7228 138.257 39.4333 138.657 39.1438C140.261 38.0082 141.797 36.8058 143.289 35.5366C144.024 34.8909 144.736 34.2228 145.449 33.5548C146.139 32.8646 146.807 32.152 147.453 31.4172C148.076 30.6601 148.7 29.9031 149.279 29.1237C149.858 28.3221 150.414 27.5205 150.904 26.6743C151.394 25.8282 151.884 24.9821 152.307 24.0914L152.463 23.7574C152.507 23.646 152.552 23.5347 152.597 23.4456C152.686 23.223 152.752 23.0003 152.797 22.7776C152.841 22.555 152.864 22.3323 152.864 22.1096C152.864 21.887 152.819 21.6865 152.708 21.5084C152.619 21.3303 152.463 21.1967 152.285 21.1076C152.107 21.0185 151.884 20.9963 151.661 20.9963C151.439 20.9963 151.194 21.0408 150.971 21.0853C150.748 21.1299 150.481 21.1744 150.258 21.2412C149.301 21.4639 148.388 21.7756 147.475 22.1542C145.649 22.9112 143.935 23.891 142.242 24.893L142.309 24.8707Z" fill="#6E1427"/>
<path d="M110.556 91.2257C111.536 93.2966 112.828 95.1892 114.386 96.8815C114.475 96.9706 114.564 97.0597 114.676 97.0819C115.054 97.171 115.166 96.5921 115.121 96.2135C114.809 94.3876 114.498 92.5617 114.186 90.7359C114.141 90.4241 114.075 90.0678 113.83 89.8674C113.518 89.6002 113.073 89.6448 112.672 89.6893C112.093 89.7784 111.469 89.8674 111.002 90.2014C110.534 90.5354 110.222 91.2035 110.467 91.7379" fill="#2F1012"/>
<path d="M95.0364 81.9628C95.1477 80.0256 95.2813 78.0884 95.3704 76.1511C95.3927 75.7503 95.3481 75.2605 94.9918 75.0823C94.7246 74.971 94.4352 75.0823 94.168 75.2159C89.5142 77.4871 85.1499 80.3373 81.1641 83.6551C80.8523 83.9223 80.5183 84.2118 80.407 84.6348C80.3179 85.0579 80.5183 85.5033 80.6965 85.8818C83.0345 90.5133 86.3077 94.655 90.2713 97.995C90.7166 98.3736 91.2955 98.7298 91.8077 98.4849C92.1862 98.2845 92.3198 97.7946 92.4089 97.3715C92.8097 95.4566 93.2105 93.5194 93.6113 91.6044C93.7004 91.2259 93.7894 90.8028 94.1234 90.5579C94.4352 90.3352 94.836 90.3574 95.1923 90.3797C104.277 90.9809 113.384 91.5821 122.469 92.1833C123.07 92.2279 123.761 92.2279 124.162 91.7603C124.407 91.4708 124.473 91.07 124.518 90.6915C124.874 88.0194 125.23 85.3697 125.587 82.7199C125.653 82.2523 125.698 81.7179 125.409 81.3616C125.075 80.9608 124.496 80.9385 123.983 80.9385C114.342 80.9831 104.678 81.0499 95.0364 81.0944" fill="#F34D56"/>
<path d="M94.2127 75.2606C89.9152 77.3982 85.8849 80.0257 82.1885 83.054C81.9659 83.2321 81.7209 83.4325 81.4983 83.6329C81.2756 83.8333 81.0307 84.0115 80.8525 84.2119C80.6744 84.4346 80.5853 84.6572 80.5853 84.9244C80.6076 85.1916 80.7189 85.4366 80.8303 85.7038C81.3647 86.7726 81.9659 87.7969 82.6116 88.8211C83.8808 90.8252 85.3505 92.7401 86.9759 94.4769C87.7776 95.3454 88.646 96.1915 89.5366 96.9709C89.7593 97.1713 89.982 97.3717 90.2047 97.5498C90.316 97.6389 90.4273 97.7502 90.5387 97.8393C90.65 97.9283 90.7613 98.0174 90.8727 98.0842C91.0953 98.2178 91.3403 98.3291 91.5407 98.2846C91.7411 98.2623 91.8747 98.1287 91.986 97.9061C92.0973 97.6834 92.1419 97.4162 92.2087 97.1044L92.3868 96.2138L92.7431 94.4547L93.0994 92.6956L93.2775 91.8049C93.3443 91.5154 93.3888 91.2037 93.5224 90.8697C93.5892 90.7138 93.7006 90.5357 93.8342 90.3798C93.99 90.224 94.1682 90.1349 94.3686 90.0904C94.7471 89.979 95.0811 90.0236 95.3706 90.0458L97.1742 90.1572L100.759 90.3798L107.929 90.8252L122.291 91.6713C122.603 91.6936 122.87 91.7158 123.137 91.6936C123.382 91.6713 123.605 91.6268 123.739 91.5377C123.805 91.4932 123.85 91.4486 123.895 91.3596C123.939 91.2928 123.961 91.1814 124.006 91.0701C124.028 90.9588 124.05 90.8252 124.073 90.6693L124.139 90.224L124.607 86.6613L125.097 83.0985L125.164 82.6532C125.186 82.5196 125.208 82.386 125.208 82.2524C125.208 82.1188 125.208 82.0075 125.186 81.9184C125.164 81.8293 125.142 81.7625 125.097 81.6957C125.052 81.6512 125.008 81.6066 124.941 81.5621C124.874 81.5176 124.763 81.4953 124.674 81.473C124.451 81.4285 124.184 81.4285 123.872 81.4285L116.68 81.4062C114.275 81.384 111.893 81.384 109.488 81.3617C107.083 81.3394 104.7 81.3172 102.296 81.2726L98.7106 81.2058L96.907 81.1836L95.1034 81.139V81.0277L96.907 80.9609L98.7106 80.9164L102.296 80.805C104.7 80.7382 107.083 80.6937 109.488 80.6492C111.893 80.6046 114.275 80.5601 116.68 80.5156L123.872 80.4042C124.162 80.4042 124.496 80.382 124.874 80.4488C125.052 80.471 125.253 80.5378 125.453 80.6492C125.654 80.7605 125.832 80.9164 125.965 81.0945C126.099 81.2949 126.166 81.4953 126.21 81.6957C126.255 81.8961 126.255 82.0965 126.255 82.2524C126.255 82.4305 126.233 82.5864 126.21 82.7423L126.144 83.1876L125.676 86.7503L125.186 90.313L125.119 90.7584C125.097 90.9142 125.075 91.0701 125.03 91.2482C124.986 91.4264 124.919 91.6045 124.808 91.8049C124.696 91.983 124.54 92.1612 124.362 92.2948C124.184 92.4284 123.984 92.4952 123.805 92.5397C123.627 92.5843 123.427 92.6065 123.271 92.6288C122.937 92.6511 122.603 92.6288 122.314 92.6065L107.974 91.56L100.804 91.0478L97.2187 90.7806L95.4151 90.647C95.1034 90.6248 94.8362 90.6025 94.6358 90.6693C94.5244 90.6916 94.4576 90.7361 94.3908 90.8029C94.324 90.8697 94.2572 90.9588 94.2127 91.0701C94.1236 91.2928 94.0568 91.5822 93.99 91.8717L93.7896 92.7624L93.4111 94.5215L93.0326 96.2806L92.8322 97.1712C92.7654 97.4607 92.7208 97.7725 92.5649 98.1065C92.4981 98.2623 92.3868 98.4405 92.2309 98.5518C92.0751 98.6854 91.8747 98.7745 91.6743 98.7967C91.4739 98.819 91.2735 98.7967 91.1176 98.7299C90.9395 98.6631 90.8059 98.5963 90.65 98.5073C90.4941 98.4182 90.3828 98.3291 90.2492 98.2178C90.1378 98.1065 90.0265 98.0174 89.9152 97.9283C89.6925 97.7279 89.4698 97.5275 89.2472 97.3271C88.3565 96.5032 87.5103 95.6571 86.6865 94.7664C85.061 92.9851 83.6136 91.0478 82.3444 88.977C81.7209 87.9527 81.1197 86.9062 80.5853 85.8151C80.4517 85.5479 80.3181 85.2362 80.3181 84.9022C80.3181 84.724 80.3404 84.5459 80.4072 84.39C80.474 84.2342 80.5631 84.0783 80.6744 83.9669C80.8971 83.722 81.1197 83.5216 81.3647 83.3435C81.5873 83.1431 81.8323 82.9649 82.0549 82.7868C85.8181 79.7808 89.9152 77.2201 94.235 75.1492L94.2127 75.2606Z" fill="#6E1427"/>
<path d="M111.002 113.783C112.427 115.653 114.097 117.323 115.968 118.748C115.923 116.833 115.856 114.918 115.812 113.003C115.812 112.825 115.789 112.625 115.634 112.513C115.522 112.447 115.389 112.447 115.255 112.469C113.83 112.625 112.427 112.959 111.113 113.515" fill="#2F1012"/>
<path d="M125.631 112.736C125.52 114.673 125.386 116.61 125.297 118.547C125.275 118.948 125.319 119.438 125.676 119.616C125.943 119.727 126.232 119.616 126.5 119.483C131.153 117.211 135.518 114.361 139.504 111.043C139.815 110.776 140.149 110.487 140.238 110.064C140.327 109.641 140.127 109.195 139.949 108.817C137.611 104.185 134.338 100.043 130.374 96.7035C129.929 96.3249 129.35 95.9686 128.838 96.2136C128.459 96.414 128.326 96.9039 128.236 97.3269C127.836 99.2419 127.435 101.179 127.034 103.094C126.945 103.473 126.856 103.896 126.522 104.141C126.232 104.363 125.809 104.341 125.453 104.319C116.368 103.718 107.261 103.116 98.1761 102.515C97.5748 102.471 96.8623 102.471 96.4838 102.938C96.2388 103.228 96.172 103.628 96.1275 104.007C95.7712 106.679 95.415 109.329 95.0587 111.979C94.9919 112.446 94.9473 112.981 95.2368 113.337C95.5708 113.738 96.1498 113.76 96.6619 113.76C106.326 113.715 115.967 113.649 125.609 113.604" fill="#F34D56"/>
<path d="M126.455 119.438C130.753 117.301 134.783 114.696 138.479 111.645C138.702 111.467 138.947 111.266 139.17 111.066C139.392 110.866 139.637 110.687 139.815 110.465C139.993 110.242 140.082 110.019 140.082 109.752C140.06 109.485 139.949 109.24 139.815 108.973C139.281 107.904 138.68 106.88 138.034 105.856C136.765 103.852 135.295 101.937 133.67 100.2C132.868 99.3313 132 98.4852 131.109 97.7058C130.886 97.5054 130.664 97.305 130.441 97.1269C130.33 97.0378 130.218 96.9265 130.107 96.8374C129.996 96.7483 129.884 96.6593 129.773 96.5925C129.55 96.4589 129.305 96.3475 129.105 96.3921C128.904 96.4143 128.771 96.5479 128.66 96.7706C128.548 96.9933 128.504 97.2605 128.437 97.5722L128.259 98.4629L127.902 100.222L127.546 101.981L127.368 102.872C127.301 103.161 127.257 103.473 127.123 103.807C127.056 103.963 126.945 104.141 126.811 104.297C126.655 104.453 126.477 104.542 126.277 104.586C125.898 104.698 125.564 104.653 125.275 104.631L123.471 104.52L119.886 104.297L112.716 103.852L98.3542 103.005C98.0425 102.983 97.7753 102.961 97.508 102.983C97.2631 103.005 97.0404 103.05 96.9068 103.139C96.84 103.184 96.7955 103.228 96.751 103.317C96.7064 103.384 96.6619 103.495 96.6396 103.607C96.6174 103.718 96.5951 103.852 96.5728 104.007L96.506 104.453L96.0384 108.015L95.5486 111.578L95.4818 112.023C95.4595 112.157 95.4372 112.291 95.4372 112.424C95.4372 112.558 95.4372 112.669 95.4595 112.758C95.4818 112.847 95.504 112.914 95.5486 112.981C95.5931 113.025 95.6376 113.07 95.7044 113.115C95.7712 113.159 95.8826 113.181 95.9716 113.204C96.1943 113.248 96.4615 113.248 96.7732 113.248L103.965 113.27C106.37 113.293 108.753 113.293 111.158 113.315C113.563 113.337 115.945 113.359 118.35 113.404L121.957 113.471L123.761 113.493L125.564 113.538V113.649L123.761 113.716L121.957 113.76L118.35 113.872C115.945 113.938 113.563 113.983 111.158 114.028C108.753 114.072 106.37 114.117 103.965 114.161L96.7732 114.272C96.4838 114.272 96.1498 114.295 95.7712 114.228C95.5931 114.183 95.3927 114.139 95.1923 114.028C94.9919 113.916 94.8137 113.76 94.6801 113.582C94.5465 113.382 94.4797 113.181 94.4352 112.981C94.3907 112.781 94.3907 112.58 94.4129 112.424C94.4352 112.268 94.4352 112.09 94.4575 111.934L94.5243 111.489L94.9919 107.926L95.4818 104.364L95.5486 103.918C95.5708 103.762 95.5931 103.607 95.6376 103.428C95.6822 103.25 95.749 103.072 95.8603 102.872C95.9716 102.694 96.1275 102.515 96.3056 102.382C96.4838 102.248 96.6842 102.181 96.8623 102.137C97.0404 102.092 97.2408 102.07 97.3967 102.048C97.7307 102.026 98.0647 102.048 98.3542 102.07L112.694 103.117L119.864 103.629L123.449 103.896L125.253 104.03C125.542 104.052 125.832 104.074 126.032 104.007C126.143 103.985 126.21 103.941 126.277 103.874C126.344 103.807 126.411 103.718 126.455 103.607C126.544 103.384 126.611 103.094 126.678 102.805L126.856 101.914L127.234 100.155L127.613 98.3961L127.791 97.5054C127.858 97.2159 127.902 96.9042 128.058 96.5702C128.125 96.4143 128.236 96.2362 128.392 96.1249C128.548 95.9913 128.749 95.9022 128.949 95.8799C129.149 95.8577 129.35 95.8799 129.506 95.9467C129.684 96.0135 129.817 96.0803 129.973 96.1694C130.129 96.2585 130.24 96.3475 130.374 96.4589C130.485 96.5702 130.597 96.6593 130.708 96.7483C130.931 96.9488 131.153 97.1492 131.376 97.3496C132.267 98.1734 133.113 99.0196 133.937 99.9103C135.562 101.692 137.01 103.629 138.279 105.7C138.902 106.724 139.504 107.77 140.016 108.862C140.149 109.129 140.283 109.441 140.283 109.775C140.283 109.953 140.261 110.131 140.194 110.287C140.127 110.443 140.038 110.598 139.927 110.71C139.704 110.955 139.481 111.155 139.236 111.333C139.014 111.511 138.769 111.712 138.524 111.89C134.761 114.896 130.664 117.457 126.344 119.527L126.455 119.438Z" fill="#6E1427"/>
<path d="M93.1218 92.6508C93.389 90.8249 93.6562 89.0213 93.9012 87.1954C93.968 86.7723 94.1016 86.2824 94.5246 86.1934C94.6805 86.1711 94.8364 86.2156 94.9923 86.2602C98.1764 87.1731 101.383 88.0861 104.478 89.2662C105.636 89.7115 106.861 90.2237 107.595 91.248C103.164 91.1812 98.7554 91.0921 94.3242 91.0253C93.9012 91.0253 93.3668 91.0698 93.1886 91.4706C93.1664 91.5374 93.1441 91.6265 93.2109 91.6933C93.2777 91.7378 93.389 91.671 93.3445 91.6042" fill="#6E1427"/>
<path d="M125.476 113.983C125.676 112.424 125.854 110.865 126.055 109.307C123.828 109.128 121.601 109.552 119.419 109.975C114.208 110.977 109.02 111.956 103.81 112.958C104.055 113.537 104.834 113.626 105.458 113.626C112.004 113.515 118.551 113.404 125.075 113.292" fill="#6E1427"/>
<path d="M99.5346 49.7426C98.6439 52.4591 98.2431 55.3316 98.3544 58.204C98.3767 58.9165 98.4435 59.6291 98.5993 60.3194C98.7552 61.0096 99.0002 61.6554 99.4232 62.1898C99.8463 62.7242 100.425 63.1027 101.071 63.3031C101.717 63.5035 102.429 63.5258 103.097 63.4367C103.788 63.3477 104.456 63.1695 105.124 62.9246C105.769 62.6796 106.415 62.3679 107.039 62.0116C108.285 61.3214 109.443 60.5198 110.512 59.5845C110.779 59.3619 111.047 59.1169 111.292 58.872C111.492 58.6716 111.804 58.5825 112.071 58.6271C112.338 58.6716 112.605 58.8497 112.739 59.1169C112.761 59.1837 112.806 59.2505 112.806 59.3173L112.828 59.3619V59.3841L112.85 59.4509L112.895 59.6959C112.939 59.874 112.984 60.0299 113.028 60.208C113.14 60.542 113.251 60.876 113.385 61.1878C113.652 61.8112 114.008 62.4124 114.431 62.9246C114.876 63.4145 115.389 63.8375 116.012 64.0825C116.613 64.3274 117.281 64.4165 117.927 64.3274C118.573 64.2383 119.219 64.0157 119.797 63.7039C120.376 63.3699 120.911 62.9691 121.401 62.4792C121.891 61.9894 122.314 61.455 122.737 60.8983C122.848 60.7647 122.937 60.6088 123.048 60.4752L123.36 60.0299C123.561 59.7404 123.917 59.5845 124.273 59.6068C124.451 59.6068 124.607 59.6736 124.763 59.7627C124.808 59.7849 124.83 59.8072 124.874 59.8295L124.919 59.874L124.963 59.9185L125.052 59.9854C125.498 60.3862 126.099 60.6311 126.723 60.6979C127.346 60.787 128.014 60.6979 128.593 60.4975C129.194 60.2748 129.751 59.9185 130.263 59.4732C131.265 58.5825 132.044 57.4024 132.712 56.1554C133.38 54.9307 133.937 53.617 134.382 52.281C134.805 50.945 135.117 49.5421 135.295 48.1393C135.473 46.7365 135.518 45.2892 135.429 43.8641H135.54C135.763 45.2892 135.83 46.7365 135.763 48.1839C135.674 49.6312 135.451 51.0786 135.073 52.4814C134.694 53.8842 134.16 55.2648 133.514 56.5785C133.336 56.9125 133.18 57.2242 133.002 57.5583C132.824 57.87 132.623 58.204 132.423 58.4935C132 59.1169 131.532 59.6959 130.975 60.2303C130.397 60.7424 129.751 61.1878 129.016 61.4772C128.259 61.7667 127.457 61.8558 126.656 61.7444C125.854 61.6331 125.075 61.3214 124.451 60.7424L124.318 60.6311C124.318 60.6311 124.318 60.6311 124.295 60.6311C124.273 60.6311 124.273 60.6311 124.273 60.6311L123.961 61.0542C123.85 61.21 123.739 61.3436 123.627 61.4995C123.182 62.0784 122.692 62.6574 122.158 63.1695C121.623 63.6817 121 64.1493 120.31 64.5055C119.642 64.8618 118.885 65.1068 118.105 65.1958C117.727 65.2404 117.326 65.2181 116.925 65.1735C116.836 65.1735 116.725 65.1513 116.636 65.129C116.591 65.129 116.547 65.1068 116.48 65.1068L116.346 65.0622L116.057 64.9731C115.968 64.9509 115.878 64.9063 115.789 64.8618C115.055 64.5501 114.431 64.0602 113.941 63.459C113.451 62.8801 113.073 62.212 112.806 61.4995C112.672 61.1655 112.561 60.8092 112.449 60.4307C112.405 60.2526 112.36 60.0744 112.316 59.8963L112.271 59.6291L112.249 59.5623V59.54V59.5177C112.249 59.4955 112.249 59.4732 112.227 59.4732C112.204 59.4064 112.138 59.3619 112.049 59.3396C111.982 59.3173 111.893 59.3396 111.826 59.4064C111.559 59.6513 111.292 59.8963 111.002 60.119C109.889 61.0542 108.664 61.878 107.373 62.5461C106.727 62.8801 106.059 63.1918 105.368 63.4367C104.678 63.6817 103.943 63.8598 103.209 63.9489C102.474 64.0157 101.694 63.9711 100.982 63.7485C100.269 63.5035 99.6014 63.0582 99.156 62.4347C98.7107 61.8335 98.4435 61.0987 98.3099 60.3862C98.1763 59.6736 98.1317 58.9388 98.1095 58.204C98.0649 55.3093 98.5325 52.4146 99.49 49.7203L99.5346 49.7426Z" fill="#6E1427"/>
<path d="M103.565 45.868C102.986 47.6939 102.674 49.5866 102.607 51.5016C102.585 51.9692 102.607 52.4591 102.607 52.9267C102.63 53.3943 102.652 53.8619 102.741 54.3295C102.83 54.7971 102.941 55.2424 103.142 55.6432C103.253 55.8436 103.364 56.044 103.498 56.2222C103.632 56.4003 103.788 56.5562 103.966 56.6898C104.3 56.957 104.723 57.1351 105.168 57.2242C105.613 57.3133 106.059 57.3133 106.504 57.2465C107.417 57.1351 108.308 56.8234 109.132 56.4003C109.978 55.9772 110.779 55.4874 111.536 54.9307C111.915 54.6635 112.294 54.3517 112.628 54.04C112.806 53.8841 112.984 53.7283 113.14 53.5724L113.273 53.4611C113.296 53.4388 113.34 53.4165 113.385 53.372C113.429 53.3497 113.474 53.3052 113.518 53.2829C113.719 53.1716 113.941 53.1716 114.164 53.2161C114.364 53.2829 114.565 53.4165 114.676 53.5947C114.743 53.6837 114.765 53.7951 114.787 53.9064L114.832 54.0845C114.854 54.1959 114.877 54.3072 114.921 54.4186C114.943 54.5299 114.988 54.6412 115.01 54.7526C115.144 55.1756 115.322 55.5987 115.545 55.9995C115.99 56.7789 116.613 57.4246 117.37 57.7363C118.127 58.0703 118.996 58.0258 119.82 57.7363C120.644 57.4469 121.356 56.9347 122.002 56.289C122.314 55.955 122.625 55.621 122.915 55.2424C123.071 55.0643 123.204 54.8639 123.338 54.6858L123.449 54.5522L123.472 54.5076C123.494 54.4854 123.516 54.4631 123.516 54.4408C123.561 54.3963 123.605 54.3518 123.65 54.3295C123.85 54.1736 124.095 54.1291 124.318 54.1513C124.429 54.1736 124.54 54.2181 124.652 54.2627C124.696 54.2849 124.741 54.3295 124.785 54.374L124.874 54.4408L124.986 54.5522L125.097 54.6412C125.253 54.7526 125.431 54.8639 125.631 54.953C126.01 55.1088 126.455 55.1979 126.878 55.1979C127.324 55.1979 127.747 55.1088 128.17 54.953C128.593 54.7971 128.972 54.5522 129.328 54.2627C130.063 53.6837 130.664 52.9267 131.198 52.1473L131.287 52.1919C130.864 53.0603 130.352 53.8841 129.617 54.5967C129.261 54.9307 128.86 55.2424 128.393 55.4874C128.17 55.5987 127.925 55.71 127.658 55.7768C127.413 55.8436 127.146 55.8882 126.878 55.9104C126.366 55.955 125.81 55.8882 125.297 55.71C125.03 55.621 124.808 55.4874 124.563 55.3315L124.385 55.2202L124.229 55.0866L124.184 55.042L124.162 55.0866L124.051 55.2424C123.917 55.4428 123.783 55.6432 123.627 55.8436C123.338 56.2444 123.026 56.623 122.692 57.0015C122.336 57.3578 121.98 57.7141 121.534 58.0258C121.111 58.3375 120.644 58.5825 120.132 58.7606C119.642 58.9387 119.085 59.0501 118.551 59.0501C117.994 59.0501 117.459 58.9165 116.947 58.6938C116.457 58.4711 116.012 58.1371 115.634 57.7586C115.255 57.3801 114.966 56.9347 114.743 56.4894C114.52 56.044 114.32 55.5542 114.186 55.0643C114.142 54.953 114.119 54.8194 114.097 54.708C114.075 54.5967 114.053 54.4631 114.008 54.3295L113.964 54.1513C113.964 54.1291 113.964 54.1291 113.964 54.1291C113.964 54.1068 113.941 54.1068 113.919 54.0845C113.897 54.0845 113.875 54.0845 113.852 54.0845C113.852 54.0845 113.852 54.0845 113.83 54.0845C113.83 54.0845 113.83 54.0845 113.785 54.1068L113.652 54.2404C113.474 54.3963 113.273 54.5744 113.095 54.7303C112.717 55.042 112.316 55.3315 111.915 55.621C111.113 56.1776 110.267 56.6675 109.377 57.0906C108.486 57.5137 107.528 57.8254 106.526 57.9367C106.037 57.9813 105.502 57.959 105.012 57.8477C104.5 57.7363 104.01 57.5137 103.609 57.1797C103.409 57.0238 103.231 56.8234 103.075 56.623C102.919 56.4226 102.808 56.1776 102.696 55.955C102.496 55.4874 102.385 54.9975 102.318 54.5076C102.251 54.0177 102.229 53.5279 102.229 53.038C102.229 52.5481 102.229 52.0583 102.273 51.5906C102.385 49.6534 102.786 47.7607 103.431 45.9348L103.565 45.868Z" fill="#6E1427"/>
<path d="M52.8629 138.654C55.8912 138.543 58.9418 138.476 61.9924 138.387L71.1218 138.164C72.636 138.12 74.1501 138.075 75.6865 138.031C77.2007 137.986 78.7149 137.986 80.2513 137.986L82.5225 138.031C83.2796 138.053 84.0367 138.075 84.7937 138.098C86.3079 138.164 87.8443 138.231 89.3585 138.365V138.476C87.8443 138.632 86.3302 138.721 84.7937 138.81C84.0367 138.855 83.2796 138.877 82.5225 138.921L80.2513 138.988C78.7371 139.033 77.2007 139.033 75.6865 139.011C74.1724 138.988 72.636 138.966 71.1218 138.944L61.9924 138.855C58.9418 138.81 55.9135 138.788 52.8629 138.721V138.654Z" fill="#6E1427"/>
<path d="M126.678 106.591C126.433 107.659 126.255 108.706 126.144 109.775L126.077 110.576L126.032 111.378L125.988 112.18L125.966 112.981C125.966 113.248 125.966 113.516 125.966 113.783L125.988 114.584C126.01 115.119 125.988 115.653 125.966 116.21C125.943 116.744 125.899 117.279 125.854 117.835C125.81 118.37 125.743 118.926 125.609 119.461H125.52C125.387 118.926 125.298 118.392 125.231 117.835C125.164 117.301 125.119 116.744 125.097 116.21C125.097 115.943 125.075 115.653 125.097 115.386C125.097 115.119 125.119 114.829 125.142 114.562L125.209 113.738C125.231 113.471 125.253 113.182 125.275 112.914L125.364 112.09L125.476 111.267L125.609 110.465L125.765 109.663C125.988 108.595 126.277 107.526 126.656 106.501L126.678 106.591Z" fill="#6E1427"/>
<path d="M94.992 74.9933C95.1256 75.0601 95.1924 75.1715 95.237 75.2828C95.2815 75.3941 95.326 75.5055 95.3483 75.6168C95.4151 75.8395 95.4374 76.0844 95.4596 76.3071C95.5042 76.7747 95.5264 77.2423 95.5264 77.7099C95.5264 78.6451 95.4819 79.5803 95.3928 80.5156C95.3038 81.4508 95.2815 82.386 95.0811 83.2989C94.8807 84.2119 94.6135 85.1248 94.1904 85.971L93.9232 85.8819C94.0123 85.7706 94.1014 85.6592 94.1904 85.5479L94.2795 85.5924C94.2572 85.726 94.235 85.8596 94.1904 86.0155L93.9232 85.9264C93.9678 84.9912 94.0568 84.0783 94.1904 83.1653C94.324 82.2524 94.569 81.3617 94.7248 80.4488C94.7916 80.0034 94.8584 79.5358 94.9252 79.0905C94.992 78.6451 95.0366 78.1775 95.1034 77.7099C95.1479 77.2423 95.1924 76.797 95.1924 76.3294C95.1924 76.1067 95.1924 75.884 95.1702 75.6391C95.1479 75.5278 95.1479 75.4164 95.1034 75.3051C95.0811 75.1937 95.0143 75.1047 94.9475 75.0601L94.992 74.9933Z" fill="#6E1427"/>
<path d="M103.231 24.4472C103.858 24.4472 104.367 23.8889 104.367 23.2003C104.367 22.5116 103.858 21.9533 103.231 21.9533C102.604 21.9533 102.095 22.5116 102.095 23.2003C102.095 23.8889 102.604 24.4472 103.231 24.4472Z" fill="#6E1427"/>
<path d="M125.453 41.1032C124.607 40.8806 123.783 40.5243 123.16 39.9454C122.737 39.5668 122.403 39.0769 122.202 38.5425C121.49 39.0324 120.755 39.5223 120.042 40.0122C118.55 41.0364 116.947 42.1943 116.479 43.9534C116.079 45.4453 116.591 47.1821 115.99 48.5627L125.342 41.3927C125.431 41.3036 125.52 41.2368 125.587 41.1478C125.542 41.1255 125.498 41.1032 125.453 41.1032Z" fill="#CFCAB6"/>
<path d="M127.903 35.9818C127.057 35.492 126.032 35.2693 125.097 35.5365C124.162 35.826 123.405 36.6944 123.405 37.6741C123.405 38.3199 123.739 38.9211 124.229 39.3441C124.719 39.7672 125.297 40.0344 125.921 40.1903C126.767 40.413 127.68 40.4352 128.504 40.1235C128.86 39.9899 129.194 39.7895 129.417 39.5C129.929 38.8765 129.907 37.9413 129.506 37.2288C129.127 36.5608 128.482 36.0486 127.725 35.8928" fill="#D11243"/>
<path d="M125.186 35.3358C124.941 35.4249 124.718 35.5585 124.518 35.7366C124.317 35.8925 124.139 36.0929 124.006 36.3156C123.738 36.7386 123.627 37.2508 123.761 37.6961C123.872 38.1637 124.162 38.5645 124.518 38.854C124.896 39.1657 125.342 39.3661 125.809 39.4775C126.299 39.6111 126.789 39.6556 127.257 39.6111C127.724 39.5665 128.192 39.4775 128.593 39.2993C128.793 39.2103 128.971 39.0989 129.105 38.9653C129.238 38.8317 129.372 38.6536 129.439 38.4532C129.595 38.0301 129.617 37.518 129.506 36.9836L129.595 36.939C129.973 37.3621 130.196 37.9633 130.129 38.6091C130.107 38.9208 129.973 39.2548 129.795 39.5443C129.595 39.8337 129.327 40.0342 129.06 40.19C128.793 40.3459 128.481 40.4572 128.192 40.524C127.902 40.5908 127.591 40.6131 127.279 40.5908C126.678 40.5686 126.121 40.4127 125.564 40.2346C125.03 40.0342 124.496 39.7447 124.05 39.3439C123.627 38.9208 123.315 38.3641 123.226 37.7629C123.182 37.4734 123.226 37.1617 123.315 36.8722C123.404 36.5828 123.538 36.3378 123.716 36.1152C124.072 35.6698 124.562 35.3581 125.119 35.2245L125.186 35.3358Z" fill="#6E1427"/>
<path d="M127.413 33.4212C126.879 33.0427 126.79 32.241 127.034 31.6621C127.302 31.0609 127.836 30.6378 128.393 30.3038C129.551 29.5913 130.864 29.1682 132.2 29.0346C133.336 28.9233 134.516 29.0346 135.63 28.7674C136.008 28.6783 136.431 28.4779 136.565 28.0994C136.654 27.8322 136.565 27.5427 136.431 27.2755C135.474 25.1602 133.002 23.8687 130.731 24.314C130.53 22.8889 130.686 21.4193 131.176 20.061C131.31 19.7047 131.51 19.3039 131.889 19.1926C132.134 19.1258 132.401 19.2149 132.623 19.2817C134.628 19.9942 136.565 20.9517 138.19 22.31C139.816 23.6905 141.129 25.4719 141.708 27.5204C142.154 29.0569 142.02 30.9941 140.684 31.8848C139.393 32.7532 137.7 32.2188 136.208 31.7957C134.717 31.3726 132.846 31.1945 131.911 32.4192C131.31 33.1985 131.132 34.4677 130.174 34.6681C129.796 34.7572 129.395 34.6013 129.038 34.4455C128.393 34.1337 127.792 33.7552 127.257 33.2876" fill="#D11243"/>
<path d="M127.368 33.4432C127.19 33.3096 127.034 33.1315 126.945 32.9311C126.856 32.7307 126.811 32.508 126.811 32.2853C126.811 32.0627 126.856 31.84 126.923 31.6396C126.99 31.4392 127.123 31.2388 127.257 31.0829C127.524 30.7489 127.88 30.4594 128.236 30.2368C128.593 30.0141 128.971 29.7914 129.372 29.6133C130.151 29.257 130.975 29.0121 131.844 28.8785C132.69 28.7449 133.558 28.7671 134.382 28.7003C134.805 28.6781 135.206 28.6113 135.607 28.4999C135.785 28.4554 135.985 28.3663 136.119 28.2773C136.253 28.1659 136.342 28.0546 136.364 27.8987C136.408 27.6093 136.164 27.2084 135.963 26.8744L135.807 26.6295L135.629 26.3846C135.562 26.2955 135.496 26.2287 135.429 26.1619C135.362 26.0951 135.295 26.006 135.228 25.9392C134.07 24.8259 132.356 24.2469 130.797 24.581L130.485 24.6477L130.441 24.336C130.33 23.4899 130.307 22.6437 130.419 21.7976C130.463 21.3745 130.552 20.9514 130.664 20.5506C130.708 20.3502 130.775 20.1498 130.842 19.9494C130.909 19.749 130.998 19.5263 131.153 19.3037C131.22 19.1923 131.332 19.1033 131.443 19.0142C131.554 18.9251 131.71 18.8583 131.866 18.8361C132.178 18.7915 132.445 18.8583 132.645 18.9251C133.046 19.0587 133.425 19.1923 133.825 19.3482C134.605 19.66 135.362 19.994 136.097 20.417C137.566 21.2186 138.925 22.2429 140.038 23.5567C140.327 23.8684 140.572 24.2247 140.817 24.581C141.062 24.9372 141.285 25.2935 141.485 25.672C141.686 26.0506 141.864 26.4514 141.997 26.8522C142.064 27.0526 142.131 27.253 142.198 27.4757C142.22 27.587 142.265 27.6983 142.287 27.8097C142.309 27.921 142.331 28.0323 142.354 28.1437C142.421 28.589 142.465 29.0343 142.443 29.4797C142.421 29.925 142.331 30.3926 142.176 30.838C142.02 31.2833 141.753 31.7064 141.396 32.0404C141.04 32.3744 140.617 32.6416 140.149 32.7752C139.682 32.9088 139.214 32.9533 138.769 32.9088C138.323 32.8643 137.9 32.7975 137.477 32.7084C137.054 32.5971 136.653 32.4857 136.275 32.3744C136.074 32.3076 135.896 32.263 135.696 32.1962C135.607 32.174 135.518 32.1517 135.406 32.1294C135.317 32.1072 135.228 32.0849 135.117 32.0627C134.738 31.9958 134.36 31.9513 133.981 31.9513C133.603 31.9513 133.247 32.0181 132.913 32.1517C132.579 32.2853 132.311 32.4857 132.089 32.7752C131.866 33.0647 131.688 33.4209 131.51 33.7995C131.398 33.9776 131.287 34.178 131.153 34.3561C131.02 34.5343 130.842 34.7124 130.641 34.8238C130.53 34.8683 130.419 34.9351 130.307 34.9574C130.196 34.9796 130.062 35.0019 129.951 35.0019C129.706 35.0019 129.506 34.9128 129.283 34.846C128.504 34.4897 127.836 33.9999 127.234 33.4209L127.301 33.3541C127.613 33.5991 127.969 33.8217 128.303 34.0221C128.66 34.2225 129.016 34.4007 129.394 34.512C129.573 34.5788 129.773 34.6011 129.929 34.6011C130.018 34.6011 130.107 34.5788 130.174 34.5565C130.263 34.5343 130.33 34.4897 130.396 34.4452C130.664 34.2671 130.842 33.9108 131.02 33.5545C131.198 33.1983 131.332 32.7975 131.577 32.4189C131.844 32.0404 132.2 31.7064 132.623 31.506C133.046 31.3056 133.491 31.2165 133.937 31.1942C134.382 31.172 134.828 31.1942 135.251 31.261C135.362 31.2833 135.473 31.2833 135.562 31.3056C135.674 31.3278 135.785 31.3501 135.874 31.3724C136.074 31.4169 136.297 31.4837 136.498 31.5282C136.898 31.6396 137.277 31.7286 137.655 31.8177C138.412 31.9736 139.192 32.0404 139.838 31.84C140.149 31.7286 140.439 31.5728 140.684 31.3278C140.906 31.1052 141.085 30.8157 141.196 30.4817C141.441 29.836 141.441 29.0566 141.329 28.3218C141.307 28.2327 141.285 28.1437 141.285 28.0546C141.263 27.9655 141.24 27.8765 141.218 27.7874C141.174 27.6093 141.107 27.4089 141.04 27.2307C140.929 26.8744 140.773 26.5182 140.595 26.1619C140.261 25.4716 139.815 24.8036 139.325 24.2024C138.323 22.9777 137.076 21.9757 135.696 21.1741C135.006 20.7733 134.271 20.417 133.536 20.1053C133.157 19.9494 132.779 19.7936 132.423 19.6822C132.245 19.6154 132.089 19.5932 132 19.6154C131.911 19.6377 131.821 19.6822 131.732 19.8158C131.643 19.9272 131.577 20.1053 131.51 20.2834C131.443 20.4616 131.376 20.662 131.332 20.8401C131.22 21.2186 131.131 21.5972 131.087 21.998C130.975 22.7773 130.953 23.5789 131.064 24.3583L130.708 24.1133C131.153 24.0465 131.599 24.0243 132.044 24.0465C132.489 24.0911 132.935 24.1801 133.358 24.3137C133.781 24.4696 134.182 24.6477 134.56 24.8704C134.649 24.915 134.738 25.004 134.828 25.0486C134.917 25.0931 135.006 25.1822 135.095 25.249C135.184 25.3158 135.273 25.3826 135.362 25.4494L135.607 25.672C135.696 25.7388 135.763 25.8279 135.83 25.917C135.896 26.006 135.985 26.0728 136.052 26.1619L136.253 26.4291L136.431 26.7186C136.498 26.8076 136.542 26.919 136.587 27.008C136.631 27.0971 136.698 27.2084 136.72 27.3198C136.809 27.5425 136.876 27.7651 136.854 28.0546C136.832 28.1882 136.787 28.3218 136.698 28.4331C136.631 28.5445 136.52 28.6335 136.431 28.7003C136.23 28.8339 136.008 28.923 135.785 28.9675C135.362 29.0789 134.917 29.1234 134.494 29.1457C133.625 29.1902 132.779 29.1457 131.955 29.257C131.131 29.3461 130.307 29.5687 129.55 29.9028C129.172 30.0586 128.793 30.259 128.437 30.4817C128.081 30.7044 127.747 30.9493 127.479 31.261C127.212 31.5728 127.034 31.9513 127.034 32.3744C127.012 32.7752 127.168 33.1983 127.502 33.4432H127.368Z" fill="#6E1427"/>
<path d="M106.883 17.923L107.773 18.5464L108.619 19.2145L109.421 19.927L110.178 20.6841C111.158 21.7306 112.026 22.9108 112.783 24.1355C114.275 26.6294 115.3 29.3682 115.945 32.1961C116.257 33.6212 116.502 35.0463 116.658 36.4936C116.814 37.941 116.88 39.3883 116.858 40.8357L116.814 41.9268C116.791 42.283 116.791 42.6393 116.769 43.0178C116.725 43.7304 116.68 44.4652 116.591 45.1777C116.457 46.6028 116.279 48.0279 116.034 49.453H115.923C115.878 48.0056 115.878 46.5806 115.878 45.1555V43.0178V41.949L115.856 40.8802C115.812 39.4551 115.767 38.03 115.678 36.6272C115.589 35.2021 115.433 33.7993 115.166 32.4188C114.654 29.6354 113.719 26.9188 112.36 24.4472C111.67 23.2002 110.868 22.0201 109.955 20.9513C109.02 19.8602 107.974 18.9027 106.816 18.0566L106.883 17.923Z" fill="#6E1427"/>
<path d="M116.034 44.0644C116.012 43.864 116.079 43.7082 116.123 43.53C116.146 43.441 116.19 43.3742 116.235 43.2851C116.279 43.196 116.324 43.1292 116.368 43.0401C116.413 42.9511 116.457 42.8843 116.502 42.8175C116.546 42.7507 116.591 42.6616 116.658 42.5948C116.769 42.4612 116.88 42.3053 116.992 42.1717C117.103 42.0381 117.237 41.9045 117.348 41.7709L117.727 41.3924C117.86 41.2588 117.994 41.1475 118.127 41.0361C118.261 40.9248 118.395 40.7912 118.528 40.6798C119.085 40.2345 119.619 39.7446 120.243 39.3884C120.866 39.0321 121.512 38.7204 122.202 38.52L122.225 38.5645C121.957 38.8317 121.69 39.0544 121.423 39.2548C121.356 39.2993 121.289 39.3661 121.223 39.4106L121 39.5888C120.866 39.7001 120.733 39.8114 120.577 39.9005C120.287 40.1009 119.998 40.3013 119.708 40.4794C119.397 40.6576 119.129 40.858 118.84 41.0584C118.684 41.1475 118.55 41.2588 118.417 41.3701C118.283 41.4815 118.127 41.5705 118.016 41.6819L117.615 42.0159C117.482 42.1272 117.37 42.2385 117.237 42.3721C117.103 42.4835 116.992 42.6171 116.88 42.7507C116.814 42.8175 116.769 42.8843 116.702 42.9511C116.658 43.0179 116.591 43.0847 116.546 43.1515C116.502 43.2183 116.435 43.2851 116.391 43.3742C116.346 43.441 116.302 43.53 116.257 43.5968C116.19 43.7527 116.101 43.9086 116.101 44.0644H116.034Z" fill="#6E1427"/>
<path d="M136.141 81.6734C138.047 81.6734 139.593 80.1282 139.593 78.222C139.593 76.3159 138.047 74.7706 136.141 74.7706C134.235 74.7706 132.69 76.3159 132.69 78.222C132.69 80.1282 134.235 81.6734 136.141 81.6734Z" fill="#E1C897"/>
<path d="M85.8851 47.8277C87.0656 47.8277 88.0227 46.8707 88.0227 45.6901C88.0227 44.5095 87.0656 43.5525 85.8851 43.5525C84.7045 43.5525 83.7474 44.5095 83.7474 45.6901C83.7474 46.8707 84.7045 47.8277 85.8851 47.8277Z" fill="#E1C897"/>
<path d="M87.0203 114.094C88.2009 114.094 89.1579 113.137 89.1579 111.956C89.1579 110.776 88.2009 109.818 87.0203 109.818C85.8397 109.818 84.8827 110.776 84.8827 111.956C84.8827 113.137 85.8397 114.094 87.0203 114.094Z" fill="#E1C897"/>
<path d="M103.454 22.2871C103.164 22.1535 102.852 22.1089 102.563 22.1535C102.251 22.1757 101.962 22.2871 101.717 22.4652C101.205 22.777 100.871 23.3336 100.715 23.9126C100.559 24.4915 100.514 25.115 100.67 25.6717C100.759 25.9389 100.871 26.2061 101.071 26.3842C101.249 26.5846 101.494 26.6959 101.761 26.785C102.029 26.8741 102.296 26.8741 102.563 26.8295C102.697 26.8073 102.83 26.7627 102.941 26.7182C103.053 26.6737 103.186 26.6069 103.275 26.5178C103.721 26.2061 104.033 25.7385 104.233 25.2263C104.344 24.9591 104.389 24.6919 104.411 24.4247C104.433 24.1352 104.411 23.8458 104.344 23.5786C104.211 23.0219 103.899 22.4875 103.365 22.1535L103.387 22.0867C103.721 22.1535 104.01 22.3316 104.277 22.5543C104.522 22.7992 104.723 23.0887 104.856 23.4004C104.99 23.7122 105.079 24.0684 105.079 24.4247C105.101 24.781 105.057 25.1373 104.946 25.4713C104.745 26.1393 104.3 26.785 103.676 27.1635C103.365 27.3417 103.008 27.4753 102.63 27.5198C102.452 27.5421 102.273 27.5421 102.095 27.5198C101.917 27.4975 101.739 27.453 101.561 27.4085C101.227 27.2971 100.893 27.0967 100.648 26.8073C100.403 26.5401 100.247 26.1838 100.18 25.8498C100.114 25.5158 100.091 25.1595 100.136 24.8255C100.158 24.4915 100.247 24.1575 100.359 23.8458C100.581 23.2223 101.004 22.6434 101.583 22.3093C101.873 22.1535 102.207 22.0644 102.541 22.0421C102.875 22.0199 103.209 22.1089 103.476 22.2648L103.454 22.2871Z" fill="#6E1427"/>
<path d="M100.626 21.0401C100.915 20.4389 101.427 19.949 102.028 19.6372C102.34 19.4814 102.674 19.37 103.008 19.3032C103.364 19.2364 103.721 19.2364 104.077 19.281C104.433 19.3255 104.79 19.4368 105.124 19.5927C105.458 19.7486 105.747 19.9713 105.992 20.2607C106.46 20.8174 106.727 21.5522 106.593 22.2647H106.504C106.17 21.6858 105.792 21.2405 105.368 20.8619C105.146 20.6838 104.945 20.5057 104.7 20.3498C104.478 20.1939 104.211 20.0603 103.943 19.9713C103.676 19.9045 103.387 19.8599 103.075 19.8822C102.786 19.9045 102.474 19.949 102.184 20.0381C101.605 20.2385 101.071 20.5947 100.67 21.0846L100.626 21.0401Z" fill="#6E1427"/>
<path d="M99.1784 20.5063C97.308 24.4698 95.6825 28.5446 94.302 32.6863C92.9437 36.8502 91.8972 41.1032 91.2069 45.423L90.9619 47.0485L90.7615 48.674C90.6502 49.765 90.5389 50.8561 90.4943 51.9249C90.383 54.1071 90.4053 56.2893 90.717 58.4269C91.0065 60.5645 91.5854 62.6799 92.5652 64.5948C93.055 65.5523 93.6117 66.4653 94.2797 67.2891C94.9477 68.1353 95.6825 68.9146 96.4841 69.6049C98.0874 71.0077 99.9578 72.1433 101.94 72.9895C103.921 73.8356 106.014 74.3923 108.152 74.704C110.29 75.038 112.45 75.1271 114.609 75.0826C115.701 75.0603 116.769 74.9935 117.86 74.9044C118.952 74.8154 120.02 74.6818 121.089 74.5259C123.227 74.2142 125.342 73.702 127.346 72.9227C128.348 72.5441 129.306 72.0543 130.241 71.4976C131.154 70.9409 132.044 70.3174 132.868 69.6272C133.715 68.9369 134.494 68.2021 135.229 67.4227C135.607 67.0219 135.963 66.6211 136.297 66.1981C136.631 65.775 136.988 65.3519 137.299 64.9066C137.945 64.0382 138.546 63.1252 139.103 62.19C139.237 61.9673 139.37 61.7224 139.504 61.4775C139.638 61.2325 139.771 60.9876 139.882 60.7649C140.127 60.2751 140.372 59.7852 140.595 59.2953L140.684 59.3398C139.148 63.437 136.631 67.2446 133.291 70.1838C131.621 71.6535 129.729 72.8781 127.658 73.7466C125.587 74.5927 123.427 75.1494 121.245 75.5056C120.154 75.6838 119.063 75.8174 117.949 75.9287C116.858 76.0401 115.745 76.1069 114.632 76.1291C112.405 76.1737 110.178 76.0401 107.996 75.6838C105.792 75.3275 103.632 74.704 101.606 73.7911C99.5792 72.8782 97.642 71.6757 95.9943 70.1838C95.1704 69.4268 94.391 68.6252 93.7008 67.7345C93.0105 66.8438 92.4316 65.8863 91.9417 64.8843C90.9619 62.8803 90.383 60.6759 90.1158 58.4937C89.8263 56.2893 89.8263 54.0626 89.9822 51.8804C90.049 50.7893 90.1603 49.676 90.2939 48.5849L90.5166 46.9594L90.7838 45.3339C91.5409 40.9919 92.6542 36.7389 94.0793 32.5972C95.5044 28.4556 97.219 24.403 99.1339 20.4617L99.1784 20.5063Z" fill="#6E1427"/>
</svg>
