<svg width="20" height="20" viewBox="0 0 20 20" fill="none" xmlns="http://www.w3.org/2000/svg">
<path d="M17.9494 9.39117L16.2552 9.35137C15.953 6.44574 13.6862 4.13716 10.8149 3.76301L10.7831 1.54199C10.7751 1.15192 10.5524 0.833496 10.274 0.833496C9.79682 0.833496 9.40709 1.36686 9.39118 2.03555L9.35141 3.73117C6.48807 4.03367 4.20536 6.2308 3.77585 9.04091L1.77947 8.99314C1.26248 8.97722 0.832977 9.27177 0.832977 9.63795C0.832977 10.4022 1.69993 11.0151 2.76573 11.0151L3.78381 10.9992C4.21331 13.6899 6.33695 15.8074 9.03327 16.2214L8.98554 18.2195C8.96964 18.737 9.26392 19.1668 9.62979 19.1668C10.3934 19.1668 11.0058 18.2991 11.0058 17.2324L10.9899 16.2134C13.726 15.7756 15.8735 13.5785 16.2314 10.8161L18.4505 10.7843C18.8402 10.7763 19.1584 10.5534 19.1584 10.2748C19.1424 9.80513 18.6175 9.4071 17.9494 9.39117ZM10.274 14.8681C7.43457 14.8681 5.12799 12.5595 5.12799 9.71756C5.12799 6.87562 7.43457 4.56703 10.274 4.56703C13.1135 4.56703 15.4201 6.87562 15.4201 9.71756C15.4201 12.5595 13.1135 14.8681 10.274 14.8681Z" fill="#464646"/>
<rect x="7.38716" y="7.39893" width="5.20833" height="5.21059" rx="2.60417" fill="#D11243"/>
</svg>
