<svg width="21" height="20" viewBox="0 0 21 20" fill="none" xmlns="http://www.w3.org/2000/svg">
<path d="M2.04739 2.95699C2.52997 1.75804 2.66658 0.00014622 5.91053 0.00014622H16.0017C17.0873 0.00014622 19.2209 -0.0712137 19.9001 2.93894C19.9028 2.95088 19.9059 2.96254 19.9098 2.9742L20.9227 6.09126C20.9274 6.10542 20.931 6.11986 20.9341 6.1343C20.9896 6.40058 21.4206 8.80848 19.0762 9.77614C17.0038 10.6313 15.398 9.51014 14.6714 8.4514C14.5095 8.21539 14.163 8.21345 13.9983 8.44752C13.5352 9.10641 12.5772 10.0699 10.9326 10.0699C9.28803 10.0699 8.39534 9.08698 7.93387 8.38365C7.76838 8.13126 7.39547 8.13626 7.24054 8.39559C6.8246 9.09197 5.95135 10.051 4.29425 10.051C1.69254 10.051 1.06141 7.94494 0.983105 7.4507C0.904804 6.95646 0.943677 6.42585 1.29853 5.24327C1.29853 5.24327 1.88662 3.35655 2.04739 2.95699Z" fill="#464646"/>
<path d="M17.4107 20.0001H13.6983C13.4723 20.0001 13.2887 19.8169 13.2887 19.5906V16.1287C13.2887 15.52 13.0422 14.9692 12.6434 14.5704C12.2444 14.1717 11.6936 13.9249 11.0852 13.9249C9.80656 13.9249 8.77004 14.9614 8.77004 16.2397V19.5906C8.77004 19.8166 8.58678 20.0001 8.36048 20.0001H4.50207C4.47957 20.0001 4.45736 19.9985 4.43515 19.9946C4.13333 19.9438 2.03669 19.4981 2.06473 16.902V11.8693C2.06473 11.5883 2.34156 11.3898 2.60673 11.482C3.47721 11.7841 5.29646 12.117 7.33368 10.7231C7.47307 10.6279 7.65605 10.6254 7.79544 10.7203C8.55651 11.2385 11.1532 12.679 14.2111 10.7198C14.355 10.6276 14.5413 10.6323 14.6779 10.7348C15.2613 11.1727 16.9733 12.2033 19.4071 11.4611C19.6689 11.3812 19.9332 11.5797 19.9332 11.8535V16.9017C19.9332 16.9017 20.0232 19.6806 17.462 19.9968C17.4451 19.999 17.4279 19.9999 17.4107 19.9999V20.0001Z" fill="#464646"/>
</svg>
